<?xml version="1.0" encoding="UTF-8" standalone="no"?>
<!DOCTYPE svg PUBLIC "-//W3C//DTD SVG 1.1//EN"
 "http://www.w3.org/Graphics/SVG/1.1/DTD/svg11.dtd">
<!-- Generated by graphviz version 2.40.1 (20161225.0304)
 -->
<!-- Title: dependencies Pages: 1 -->
<svg width="574pt" height="284pt"
 viewBox="0.00 0.00 574.00 284.00" xmlns="http://www.w3.org/2000/svg" xmlns:xlink="http://www.w3.org/1999/xlink">
<g id="graph0" class="graph" transform="scale(1 1) rotate(0) translate(4 280)">
<title>dependencies</title>
<polygon fill="#ffffff" stroke="transparent" points="-4,4 -4,-280 570,-280 570,4 -4,4"/>
<text text-anchor="start" x="262.0091" y="-42.4" font-family="sans-serif" font-weight="bold" font-size="14.00" fill="#000000">Legend</text>
<polygon fill="#ffffb3" stroke="transparent" points="49,-10 49,-30 69,-30 69,-10 49,-10"/>
<text text-anchor="start" x="72.629" y="-15.4" font-family="sans-serif" font-size="14.00" fill="#000000"> &#160;Declarations</text>
<polygon fill="#8dd3c7" stroke="transparent" points="162,-10 162,-30 182,-30 182,-10 162,-10"/>
<text text-anchor="start" x="185.7251" y="-15.4" font-family="sans-serif" font-size="14.00" fill="#000000"> &#160;Module</text>
<polygon fill="#80b1d3" stroke="transparent" points="248,-10 248,-30 268,-30 268,-10 248,-10"/>
<text text-anchor="start" x="271.7812" y="-15.4" font-family="sans-serif" font-size="14.00" fill="#000000"> &#160;Bootstrap</text>
<polygon fill="#fdb462" stroke="transparent" points="345,-10 345,-30 365,-30 365,-10 345,-10"/>
<text text-anchor="start" x="368.6732" y="-15.4" font-family="sans-serif" font-size="14.00" fill="#000000"> &#160;Providers</text>
<polygon fill="#fb8072" stroke="transparent" points="441,-10 441,-30 461,-30 461,-10 441,-10"/>
<text text-anchor="start" x="464.7258" y="-15.4" font-family="sans-serif" font-size="14.00" fill="#000000"> &#160;Exports</text>
<g id="clust1" class="cluster">
<title>cluster_AppModule</title>
<polygon fill="none" stroke="#000000" stroke-dasharray="1,5" points="8,-70 8,-268 558,-268 558,-70 8,-70"/>
</g>
<g id="clust3" class="cluster">
<title>cluster_AppModule_imports</title>
<polygon fill="none" stroke="#000000" points="16,-78 16,-130 550,-130 550,-78 16,-78"/>
</g>
<g id="clust5" class="cluster">
<title>cluster_AppModule_bootstrap</title>
<polygon fill="none" stroke="#000000" points="171,-208 171,-260 295,-260 295,-208 171,-208"/>
</g>
<!-- RouterModule.forRoot(args) -->
<g id="node1" class="node">
<title>RouterModule.forRoot(args)</title>
<polygon fill="#8dd3c7" stroke="#000000" points="541.8419,-122 538.8419,-126 517.8419,-126 514.8419,-122 364.1581,-122 364.1581,-86 541.8419,-86 541.8419,-122"/>
<text text-anchor="middle" x="453" y="-99.8" font-family="Times,serif" font-size="14.00" fill="#000000">RouterModule.forRoot(args)</text>
</g>
<!-- AppModule -->
<g id="node5" class="node">
<title>AppModule</title>
<polygon fill="#8dd3c7" stroke="#000000" points="274.6571,-187 271.6571,-191 250.6571,-191 247.6571,-187 191.3429,-187 191.3429,-151 274.6571,-151 274.6571,-187"/>
<text text-anchor="middle" x="233" y="-164.8" font-family="Times,serif" font-size="14.00" fill="#000000">AppModule</text>
</g>
<!-- RouterModule.forRoot(args)&#45;&gt;AppModule -->
<g id="edge1" class="edge">
<title>RouterModule.forRoot(args)&#45;&gt;AppModule</title>
<path fill="none" stroke="#000000" d="M453,-122.1061C453,-141.3391 453,-169 453,-169 453,-169 284.8982,-169 284.8982,-169"/>
<polygon fill="#000000" stroke="#000000" points="284.8982,-165.5001 274.8982,-169 284.8981,-172.5001 284.8982,-165.5001"/>
</g>
<!-- BrowserModule -->
<g id="node2" class="node">
<title>BrowserModule</title>
<polygon fill="#8dd3c7" stroke="#000000" points="346.4734,-122 343.4734,-126 322.4734,-126 319.4734,-122 239.5266,-122 239.5266,-86 346.4734,-86 346.4734,-122"/>
<text text-anchor="middle" x="293" y="-99.8" font-family="Times,serif" font-size="14.00" fill="#000000">BrowserModule</text>
</g>
<!-- BrowserModule&#45;&gt;AppModule -->
<g id="edge2" class="edge">
<title>BrowserModule&#45;&gt;AppModule</title>
<path fill="none" stroke="#000000" d="M257.1708,-122.1061C257.1708,-122.1061 257.1708,-140.991 257.1708,-140.991"/>
<polygon fill="#000000" stroke="#000000" points="253.6708,-140.9909 257.1708,-150.991 260.6708,-140.991 253.6708,-140.9909"/>
</g>
<!-- FormsModule -->
<g id="node3" class="node">
<title>FormsModule</title>
<polygon fill="#8dd3c7" stroke="#000000" points="221.8288,-122 218.8288,-126 197.8288,-126 194.8288,-122 126.1712,-122 126.1712,-86 221.8288,-86 221.8288,-122"/>
<text text-anchor="middle" x="174" y="-99.8" font-family="Times,serif" font-size="14.00" fill="#000000">FormsModule</text>
</g>
<!-- FormsModule&#45;&gt;AppModule -->
<g id="edge3" class="edge">
<title>FormsModule&#45;&gt;AppModule</title>
<path fill="none" stroke="#000000" d="M206.418,-122.1061C206.418,-122.1061 206.418,-140.991 206.418,-140.991"/>
<polygon fill="#000000" stroke="#000000" points="202.918,-140.9909 206.418,-150.991 209.918,-140.991 202.918,-140.9909"/>
</g>
<!-- HttpModule -->
<g id="node4" class="node">
<title>HttpModule</title>
<polygon fill="#8dd3c7" stroke="#000000" points="108.4387,-122 105.4387,-126 84.4387,-126 81.4387,-122 23.5613,-122 23.5613,-86 108.4387,-86 108.4387,-122"/>
<text text-anchor="middle" x="66" y="-99.8" font-family="Times,serif" font-size="14.00" fill="#000000">HttpModule</text>
</g>
<!-- HttpModule&#45;&gt;AppModule -->
<g id="edge4" class="edge">
<title>HttpModule&#45;&gt;AppModule</title>
<path fill="none" stroke="#000000" d="M66,-122.1061C66,-141.3391 66,-169 66,-169 66,-169 181.2896,-169 181.2896,-169"/>
<polygon fill="#000000" stroke="#000000" points="181.2897,-172.5001 191.2896,-169 181.2896,-165.5001 181.2897,-172.5001"/>
</g>
<!-- AppComponent  -->
<g id="node6" class="node">
<title>AppComponent </title>
<polygon fill="#80b1d3" stroke="#000000" points="287.439,-252 178.561,-252 178.561,-216 287.439,-216 287.439,-252"/>
<text text-anchor="middle" x="233" y="-229.8" font-family="Times,serif" font-size="14.00" fill="#000000">AppComponent </text>
</g>
<!-- AppModule&#45;&gt;AppComponent  -->
<g id="edge5" class="edge">
<title>AppModule&#45;&gt;AppComponent </title>
<path fill="none" stroke="#000000" stroke-dasharray="1,5" d="M233,-187.1061C233,-187.1061 233,-205.991 233,-205.991"/>
<polygon fill="#000000" stroke="#000000" points="229.5001,-205.9909 233,-215.991 236.5001,-205.991 229.5001,-205.9909"/>
</g>
</g>
</svg>
